<svg xmlns="http://www.w3.org/2000/svg" id="BG-animated" viewBox="0 0 1920 1080"><defs><linearGradient id="Gradient-0" x1="395" y1="0" x2="395" y2="545" gradientUnits="userSpaceOnUse"><stop offset="0" stop-color="#2d3043"/><stop offset="1" stop-color="#2d3043" stop-opacity="0"/></linearGradient><linearGradient id="Gradient-1" x1="222.5" y1="0" x2="222.5" y2="445" gradientUnits="userSpaceOnUse"><stop offset="0" stop-color="#2d3043"/><stop offset="1" stop-color="#2d3043" stop-opacity="0"/></linearGradient><linearGradient id="Gradient-2" x1="960" y1="0" x2="960" y2="682" gradientUnits="userSpaceOnUse"><stop offset="0" stop-color="#21232f" stop-opacity="0"/><stop offset="1" stop-color="#21232f"/></linearGradient></defs><style>
@keyframes a0_t { 0% { transform: translate(1323px,813px) rotate(0deg) translate(-112.9px,-53.1px); } 100% { transform: translate(1323px,813px) rotate(360deg) translate(-112.9px,-53.1px); } }
@keyframes a1_t { 0% { transform: translate(1156px,297px) rotate(20deg) translate(-254px,-243px); } 100% { transform: translate(1156px,297px) rotate(-380deg) translate(-254px,-243px); } }
</style><rect width="1920" height="1080" fill="#1f222b"/><rect width="972.5" height="540.8" fill="#303347" transform="translate(1727,1023) rotate(-45) translate(-388,-270.4)"/><rect width="751" height="545" fill="url(#Gradient-0)" transform="translate(1211,-43.5)"/><path fill="rgba(115,120,153,0.36)" d="M-126.9-114.3h515.5l-280.5 453.1Z" transform="translate(1323,813) translate(-112.9,-53.1)" style="animation: 50s linear infinite both a0_t;"/><rect width="445" height="445" fill="url(#Gradient-1)" transform="translate(105.5,159.5) rotate(30) translate(-222.5,-222.5)"/><rect width="508" height="486" fill="rgba(48,51,71,0.34)" transform="translate(1156,297) rotate(20) translate(-254,-243)" style="animation: 50s linear infinite both a1_t;"/><rect width="1920" height="682" fill="url(#Gradient-2)" transform="translate(960,540) scale(1,.71275) translate(-960,-142)"/><rect x="21" y="924.9" width="1899" height="155.1" fill="#21232f"/></svg>